<svg width="28" height="28" viewBox="0 0 28 28" fill="none" xmlns="http://www.w3.org/2000/svg">
<path d="M24.4996 13.4167C24.4996 18.8935 20.0597 23.3333 14.5829 23.3333C13.3266 23.3333 12.125 23.0997 11.0189 22.6736C10.8167 22.5957 10.7156 22.5568 10.6352 22.5382C10.5561 22.52 10.4988 22.5124 10.4177 22.5093C10.3353 22.5061 10.2448 22.5155 10.0639 22.5342L4.08935 23.1518C3.51973 23.2106 3.23493 23.2401 3.06692 23.1376C2.92059 23.0483 2.82092 22.8992 2.79439 22.7299C2.76393 22.5355 2.90003 22.2836 3.17223 21.7797L5.08049 18.2476C5.23765 17.9567 5.31622 17.8113 5.35181 17.6714C5.38696 17.5333 5.39546 17.4337 5.38422 17.2917C5.37283 17.1478 5.30972 16.9606 5.18348 16.586C4.84804 15.5909 4.66622 14.525 4.66622 13.4167C4.66622 7.93984 9.10606 3.5 14.5829 3.5C20.0597 3.5 24.4996 7.93984 24.4996 13.4167Z" fill="white" stroke="white" stroke-width="2" stroke-linecap="round" stroke-linejoin="round"/>
</svg>
