<svg width="28" height="28" viewBox="0 0 28 28" fill="none" xmlns="http://www.w3.org/2000/svg">
<path d="M10.9593 22.5998L11.6411 24.1333C11.8438 24.5898 12.1746 24.9777 12.5934 25.2499C13.0121 25.5221 13.5009 25.6669 14.0004 25.6668C14.4998 25.6669 14.9886 25.5221 15.4074 25.2499C15.8261 24.9777 16.1569 24.5898 16.3596 24.1333L17.0415 22.5998C17.2842 22.0556 17.6925 21.602 18.2081 21.3035C18.7271 21.0042 19.3274 20.8767 19.9231 20.9392L21.5915 21.1168C22.0881 21.1694 22.5893 21.0767 23.0343 20.85C23.4793 20.6234 23.849 20.2725 24.0985 19.84C24.3484 19.4077 24.4674 18.9122 24.4412 18.4135C24.415 17.9149 24.2446 17.4346 23.9507 17.0309L22.963 15.6737C22.6112 15.1868 22.4233 14.6008 22.4263 14.0002C22.4262 13.4012 22.6159 12.8176 22.9681 12.3331L23.9559 10.9759C24.2498 10.5722 24.4202 10.0919 24.4464 9.59328C24.4726 9.09465 24.3536 8.59913 24.1037 8.16683C23.8541 7.73427 23.4845 7.3834 23.0395 7.15676C22.5945 6.93012 22.0933 6.83745 21.5967 6.88998L19.9283 7.06757C19.3325 7.13014 18.7322 7.00264 18.2133 6.70331C17.6966 6.40312 17.2882 5.94708 17.0467 5.40053L16.3596 3.86701C16.1569 3.41053 15.8261 3.02266 15.4074 2.75046C14.9886 2.47826 14.4998 2.33341 14.0004 2.3335C13.5009 2.33341 13.0121 2.47826 12.5934 2.75046C12.1746 3.02266 11.8438 3.41053 11.6411 3.86701L10.9593 5.40053C10.7177 5.94708 10.3093 6.40312 9.79259 6.70331C9.27367 7.00264 8.67337 7.13014 8.07759 7.06757L6.40407 6.88998C5.90745 6.83745 5.40627 6.93012 4.96127 7.15676C4.51628 7.3834 4.14659 7.73427 3.89703 8.16683C3.64716 8.59913 3.52811 9.09465 3.55434 9.59328C3.58058 10.0919 3.75096 10.5722 4.04481 10.9759L5.03259 12.3331C5.38485 12.8176 5.57455 13.4012 5.57444 14.0002C5.57455 14.5991 5.38485 15.1828 5.03259 15.6672L4.04481 17.0244C3.75096 17.4281 3.58058 17.9084 3.55434 18.407C3.52811 18.9057 3.64716 19.4012 3.89703 19.8335C4.14683 20.2658 4.51657 20.6165 4.9615 20.8431C5.40643 21.0697 5.90749 21.1625 6.40407 21.1103L8.0724 20.9328C8.66818 20.8702 9.26849 20.9977 9.7874 21.297C10.306 21.5964 10.7163 22.0525 10.9593 22.5998Z" stroke="white" stroke-width="2" stroke-linecap="round" stroke-linejoin="round"/>
<path d="M13.9983 17.5002C15.9313 17.5002 17.4983 15.9332 17.4983 14.0002C17.4983 12.0672 15.9313 10.5002 13.9983 10.5002C12.0653 10.5002 10.4983 12.0672 10.4983 14.0002C10.4983 15.9332 12.0653 17.5002 13.9983 17.5002Z" stroke="white" stroke-width="2" stroke-linecap="round" stroke-linejoin="round"/>
</svg>
