<svg width="28" height="28" viewBox="0 0 28 28" fill="none" xmlns="http://www.w3.org/2000/svg">
<path d="M24.5 10.5L24.5 3.5M24.5 3.5H17.5M24.5 3.5L15.1667 12.8333M11.6667 5.83333H9.1C7.13982 5.83333 6.15972 5.83333 5.41103 6.21481C4.75247 6.55037 4.21703 7.0858 3.88148 7.74437C3.5 8.49306 3.5 9.47315 3.5 11.4333V18.9C3.5 20.8602 3.5 21.8403 3.88148 22.589C4.21703 23.2475 4.75247 23.783 5.41103 24.1185C6.15972 24.5 7.13982 24.5 9.1 24.5H16.5667C18.5268 24.5 19.5069 24.5 20.2556 24.1185C20.9142 23.783 21.4496 23.2475 21.7852 22.589C22.1667 21.8403 22.1667 20.8602 22.1667 18.9V16.3333" stroke="white" stroke-width="2" stroke-linecap="round" stroke-linejoin="round"/>
</svg>
