<svg width="28" height="28" viewBox="0 0 28 28" fill="none" xmlns="http://www.w3.org/2000/svg">
<path d="M24.4984 13.4167C24.4984 18.8935 20.0586 23.3333 14.5818 23.3333C13.3255 23.3333 12.1238 23.0997 11.0178 22.6736C10.8155 22.5957 10.7144 22.5568 10.634 22.5382C10.5549 22.52 10.4977 22.5124 10.4166 22.5093C10.3341 22.5061 10.2437 22.5155 10.0627 22.5342L4.08822 23.1518C3.5186 23.2106 3.2338 23.2401 3.06579 23.1376C2.91946 23.0483 2.81979 22.8992 2.79326 22.7299C2.7628 22.5355 2.8989 22.2836 3.1711 21.7797L5.07936 18.2476C5.23652 17.9567 5.31509 17.8113 5.35069 17.6714C5.38583 17.5333 5.39433 17.4337 5.38309 17.2917C5.3717 17.1478 5.30859 16.9606 5.18235 16.586C4.84691 15.5909 4.66509 14.525 4.66509 13.4167C4.66509 7.93984 9.10493 3.5 14.5818 3.5C20.0586 3.5 24.4984 7.93984 24.4984 13.4167Z" stroke="white" stroke-width="2" stroke-linecap="round" stroke-linejoin="round"/>
</svg>
