<svg width="28" height="28" viewBox="0 0 28 28" fill="none" xmlns="http://www.w3.org/2000/svg">
<path d="M9.332 16.7132C9.332 16.1425 9.332 15.8571 9.39647 15.5886C9.45363 15.3505 9.54791 15.1229 9.67584 14.9141C9.82014 14.6786 10.0219 14.4769 10.4255 14.0733L21.582 2.91677C22.5485 1.95027 24.1155 1.95027 25.082 2.91677C26.0485 3.88327 26.0485 5.45027 25.082 6.41677L13.9255 17.5733C13.5219 17.9769 13.3202 18.1786 13.0847 18.3229C12.8759 18.4509 12.6483 18.5451 12.4102 18.6023C12.1417 18.6668 11.8563 18.6668 11.2856 18.6668H9.332V16.7132Z" fill="white"/>
<path d="M12.832 4.66677H7.93203C5.97185 4.66677 4.99176 4.66677 4.24306 5.04825C3.5845 5.3838 3.04907 5.91924 2.71351 6.5778C2.33203 7.32649 2.33203 8.30659 2.33203 10.2668V20.0668C2.33203 22.027 2.33203 23.007 2.71351 23.7557C3.04907 24.4143 3.5845 24.9497 4.24306 25.2853C4.99176 25.6668 5.97185 25.6668 7.93203 25.6668H17.732C19.6922 25.6668 20.6723 25.6668 21.421 25.2853C22.0796 24.9497 22.615 24.4143 22.9506 23.7557C23.332 23.007 23.332 22.027 23.332 20.0668V15.1668M9.332 18.6668H11.2856C11.8563 18.6668 12.1417 18.6668 12.4102 18.6023C12.6483 18.5451 12.8759 18.4509 13.0847 18.3229C13.3202 18.1786 13.5219 17.9769 13.9255 17.5733L25.082 6.41677C26.0485 5.45027 26.0485 3.88327 25.082 2.91677C24.1155 1.95027 22.5485 1.95027 21.582 2.91677L10.4255 14.0733C10.0219 14.4769 9.82014 14.6786 9.67584 14.9141C9.54791 15.1229 9.45363 15.3505 9.39647 15.5886C9.332 15.8571 9.332 16.1425 9.332 16.7132V18.6668Z" stroke="white" stroke-width="2" stroke-linecap="round" stroke-linejoin="round"/>
</svg>
